<svg width="20" height="14" viewBox="0 0 20 14" fill="none" xmlns="http://www.w3.org/2000/svg">
<path fill-rule="evenodd" clip-rule="evenodd" d="M1.2309 0.423828H18.7691C19.0768 0.423828 19.3515 0.616754 19.456 0.906131C19.5612 1.19477 19.4736 1.51923 19.2368 1.71581L10.4677 9.0234C10.1966 9.2492 9.80343 9.2492 9.53232 9.0234L0.763211 1.71581C0.526441 1.51923 0.438754 1.19477 0.543981 0.906131C0.648483 0.616754 0.923243 0.423828 1.2309 0.423828Z" fill="white"/>
<path fill-rule="evenodd" clip-rule="evenodd" d="M19.5 3.39844V12.8464C19.5 13.0404 19.424 13.2264 19.286 13.3625C19.15 13.5004 18.962 13.5764 18.77 13.5764H1.23C1.038 13.5764 0.85 13.5004 0.714001 13.3625C0.576001 13.2264 0.5 13.0404 0.5 12.8464V3.39844L8.596 10.1464C9.41 10.8245 10.59 10.8245 11.404 10.1464L19.5 3.39844Z" fill="white"/>
</svg>
